<?xml version="1.0" encoding="UTF-8"?>
<svg version="1.1" xmlns="http://www.w3.org/2000/svg" width="64" height="64">
<path d="M0 0 C18.48 0 36.96 0 56 0 C56 7.77027698 55.87783201 15.24701707 55.1953125 22.9453125 C55.11127167 23.9224118 55.02723083 24.89951111 54.94064331 25.90621948 C54.76342636 27.94487802 54.58348504 29.98330149 54.40087891 32.02148438 C54.12264187 35.15152796 53.85982891 38.28263715 53.59765625 41.4140625 C53.422805 43.40372778 53.24705691 45.3933145 53.0703125 47.3828125 C52.99313995 48.31916534 52.91596741 49.25551819 52.8364563 50.22024536 C52.75652435 51.08229584 52.67659241 51.94434631 52.59423828 52.83251953 C52.52761993 53.59130402 52.46100159 54.3500885 52.3923645 55.13186646 C52 57 52 57 50 59 C47.19640073 60.09753608 44.27626122 60.82657291 41.375 61.625 C40.20130859 61.96917969 40.20130859 61.96917969 39.00390625 62.3203125 C30.14979623 64.78712922 23.38811369 64.19474339 14.625 61.625 C13.41650391 61.29242188 13.41650391 61.29242188 12.18359375 60.953125 C6.26886344 59.26886344 6.26886344 59.26886344 4 57 C3.6076355 55.13186646 3.6076355 55.13186646 3.40576172 52.83251953 C3.32582977 51.97046906 3.24589783 51.10841858 3.1635437 50.22024536 C3.08637115 49.28389252 3.00919861 48.34753967 2.9296875 47.3828125 C2.80075607 45.93151443 2.80075607 45.93151443 2.66921997 44.45089722 C2.48855245 42.39504757 2.31231978 40.33880418 2.14013672 38.28222656 C1.87890388 35.17148711 1.60278279 32.06235491 1.32421875 28.953125 C1.15014272 26.95059877 0.97693942 24.94799646 0.8046875 22.9453125 C0.72346649 22.02920197 0.64224548 21.11309143 0.55856323 20.16921997 C-0.00116651 13.37613286 0 6.87633178 0 0 Z " fill="#2598F3" transform="translate(4,0)"/>
<path d="M0 0 C11.22 0 22.44 0 34 0 C34 8.59081784 33.82072542 16.81133737 33 25.3125 C32.90460937 26.35083984 32.80921875 27.38917969 32.7109375 28.45898438 C32.47921292 30.9731961 32.24220699 33.48678034 32 36 C20.26647832 40.11114369 13.6968243 39.68530081 2 36 C2 32.04 2 28.08 2 24 C4.31 24 6.62 24 9 24 C9 26.31 9 28.62 9 31 C14.28 31 19.56 31 25 31 C25 28.36 25 25.72 25 23 C25.33 22.34 25.66 21.68 26 21 C17.75 21 9.5 21 1 21 C1 18.69 1 16.38 1 14 C9.58 14 18.16 14 27 14 C27 11.36 27 8.72 27 6 C18.09 6 9.18 6 0 6 C0 4.02 0 2.04 0 0 Z " fill="#F1F6F9" transform="translate(15,12)"/>
</svg>
